HIERARCHY
ROOT Hips
{
	OFFSET 0.000000 0.000000 0.000000
	CHANNELS 6 Xposition Yposition Zposition Zrotation Yrotation Xrotation 
	JOINT LHipJoint
	{
		OFFSET 0.000000 0.000000 0.000000
		CHANNELS 3 Zrotation Yrotation Xrotation
		JOINT LeftUpLeg
		{
			OFFSET 1.363060 -1.794630 0.839290
			CHANNELS 3 Zrotation Yrotation Xrotation
			JOINT LeftLeg
			{
				OFFSET 2.448110 -6.726130 0.000000
				CHANNELS 3 Zrotation Yrotation Xrotation
				JOINT LeftFoot
				{
					OFFSET 2.562200 -7.039590 0.000000
					CHANNELS 3 Zrotation Yrotation Xrotation
					JOINT LeftToeBase
					{
						OFFSET 0.157640 -0.433110 2.322550
						CHANNELS 3 Zrotation Yrotation Xrotation
						End Site
						{
							OFFSET 0.000000 0.000000 0.000000
						}
					}
				}
			}
		}
	}
	JOINT RHipJoint
	{
		OFFSET 0.000000 0.000000 0.000000
		CHANNELS 3 Zrotation Yrotation Xrotation
		JOINT RightUpLeg
		{
			OFFSET -1.305520 -1.794630 0.839290
			CHANNELS 3 Zrotation Yrotation Xrotation
			JOINT RightLeg
			{
				OFFSET -2.542530 -6.985550 0.000000
				CHANNELS 3 Zrotation Yrotation Xrotation
				JOINT RightFoot
				{
					OFFSET -2.568260 -7.056230 0.000000
					CHANNELS 3 Zrotation Yrotation Xrotation
					JOINT RightToeBase
					{
						OFFSET -0.164730 -0.452590 2.363150
						CHANNELS 3 Zrotation Yrotation Xrotation
						End Site
						{
							OFFSET 0.000000 0.000000 0.000000
						}
					}
				}
			}
		}
	}
	JOINT LowerBack
	{
		OFFSET 0.000000 0.000000 0.000000
		CHANNELS 3 Zrotation Yrotation Xrotation
		JOINT Spine
		{
			OFFSET 0.028270 2.035590 -0.193380
			CHANNELS 3 Zrotation Yrotation Xrotation
			JOINT Spine1
			{
				OFFSET 0.056720 2.048850 -0.042750
				CHANNELS 3 Zrotation Yrotation Xrotation
				JOINT Neck
				{
					OFFSET 0.000000 0.000000 0.000000
					CHANNELS 3 Zrotation Yrotation Xrotation
					JOINT Neck1
					{
						OFFSET -0.054170 1.746240 0.172020
						CHANNELS 3 Zrotation Yrotation Xrotation
						JOINT Head
						{
							OFFSET 0.104070 1.761360 -0.123970
							CHANNELS 3 Zrotation Yrotation Xrotation
							End Site
							{
								OFFSET 0.000000 0.000000 0.000000
							}
						}
					}
				}
				JOINT LeftShoulder
				{
					OFFSET 0.000000 0.000000 0.000000
					CHANNELS 3 Zrotation Yrotation Xrotation
					JOINT LeftArm
					{
						OFFSET 3.362410 1.200890 -0.311210
						CHANNELS 3 Zrotation Yrotation Xrotation
						JOINT LeftForeArm
						{
							OFFSET 4.983000 -0.000000 -0.000000
							CHANNELS 3 Zrotation Yrotation Xrotation
							JOINT LeftHand
							{
								OFFSET 3.483560 -0.000000 -0.000000
								CHANNELS 3 Zrotation Yrotation Xrotation
								JOINT LeftFingerBase
								{
									OFFSET 0.000000 0.000000 0.000000
									CHANNELS 3 Zrotation Yrotation Xrotation
									JOINT LeftHandIndex1
									{
										OFFSET 0.715260 -0.000000 -0.000000
										CHANNELS 3 Zrotation Yrotation Xrotation
										End Site
										{
											OFFSET 0.000000 0.000000 0.000000
										}
									}
								}
								JOINT LThumb
								{
									OFFSET 0.000000 0.000000 0.000000
									CHANNELS 3 Zrotation Yrotation Xrotation
									End Site
									{
										OFFSET 0.000000 0.000000 0.000000
									}
								}
							}
						}
					}
				}
				JOINT RightShoulder
				{
					OFFSET 0.000000 0.000000 0.000000
					CHANNELS 3 Zrotation Yrotation Xrotation
					JOINT RightArm
					{
						OFFSET -3.136600 1.374050 -0.404650
						CHANNELS 3 Zrotation Yrotation Xrotation
						JOINT RightForeArm
						{
							OFFSET -5.241900 -0.000000 -0.000000
							CHANNELS 3 Zrotation Yrotation Xrotation
							JOINT RightHand
							{
								OFFSET -3.444170 -0.000000 -0.000000
								CHANNELS 3 Zrotation Yrotation Xrotation
								JOINT RightFingerBase
								{
									OFFSET 0.000000 0.000000 0.000000
									CHANNELS 3 Zrotation Yrotation Xrotation
									JOINT RightHandIndex1
									{
										OFFSET -0.622530 -0.000000 -0.000000
										CHANNELS 3 Zrotation Yrotation Xrotation
										End Site
										{
											OFFSET 0.000000 0.000000 0.000000
										}
									}
								}
								JOINT RThumb
								{
									OFFSET 0.000000 0.000000 0.000000
									CHANNELS 3 Zrotation Yrotation Xrotation
									End Site
									{
										OFFSET 0.000000 0.000000 0.000000
									}
								}
							}
						}
					}
				}
			}
		}
	}
}
MOTION
Frames: 8
Frame Time: 0.008333
-2.747253 17.367360 5.343643 -159.738288 80.902558 -164.248026 5.824001 -0.863089 -0.306013 -24.247198 -17.451236 -14.987072 -0.105923 12.282716 29.922435 -3.549786 15.175715 -7.454178 0.218600 3.010100 8.306800 -7.892932 -0.254624 -2.868314 34.100766 -9.098156 16.481673 -1.933782 -9.968750 29.584818 -0.055452 -1.748773 4.904576 -2.567200 9.959000 -28.844200 2.372807 3.954431 7.858594 1.937833 5.719526 2.547047 -7.910035 3.144787 4.345839 10.116407 3.299199 -4.064518 3.599569 4.071563 16.990379 -4.920400 3.589100 6.776000 7.098595 5.162531 -0.811488 -92.514410 4.738114 7.810439 9.737838 -10.624821 -0.789990 -2.982249 -2.130268 20.334487 17.645526 8.458609 4.098100 -7.125000 0.000000 0.000000 -6.668700 42.105800 0.478500 -9.401529 -3.911623 0.107666 107.651516 6.306064 22.970023 -15.263090 21.611755 -4.377681 1.046819 2.188033 -19.049465 -16.981690 5.817081 -1.345600 7.125000 0.000000 0.000000 5.986200 -25.775600 2.801900 
-2.419691 17.398040 5.276170 -163.000042 81.238971 -167.589084 5.756293 -0.715352 -0.264175 -25.288203 -16.322102 -13.632590 -0.159596 11.988480 29.521145 -3.476392 14.888197 -7.438216 0.193100 2.829800 7.805200 -7.958560 -0.256803 -2.823496 32.954287 -8.537339 13.187851 -3.305049 -12.031789 36.311347 -0.239099 -1.359935 7.991350 -2.962900 10.634700 -31.057600 1.419340 3.819380 7.840220 1.819668 5.520491 2.513879 -7.799538 2.999675 4.194234 10.289870 3.571840 -3.899876 3.674872 4.413237 17.050205 -4.916600 3.792600 6.838200 7.121318 5.144635 -0.854344 -92.551257 4.483142 9.494658 9.997163 -11.079042 -0.907238 -2.981547 -2.249351 18.088494 18.080394 8.265630 4.156900 -7.125000 0.000000 0.000000 -6.182100 41.988900 0.461200 -9.321001 -3.939668 0.156600 107.351712 5.755203 23.000030 -14.695229 20.836150 -4.059489 1.047535 2.132603 -18.465512 -16.574778 5.634732 -1.265800 7.125000 0.000000 0.000000 6.325900 -25.930900 2.939700 
-2.098242 17.428720 5.210773 -167.737688 81.453255 -172.472826 5.691490 -0.538766 -0.212054 -26.477972 -14.941108 -12.187062 -0.252796 11.620590 28.921290 -3.313050 14.311428 -7.440984 0.146900 2.469600 6.805200 -8.031508 -0.243482 -2.791704 31.843944 -7.631760 10.001860 -4.837514 -13.866118 42.838692 -0.312902 -1.605337 10.251178 -3.432200 11.363800 -33.516800 0.346577 3.646110 7.952550 1.689576 5.269127 2.494838 -7.658253 2.832620 4.037963 10.371070 3.865302 -3.731283 3.763222 4.780247 17.060646 -4.881100 3.994300 6.877600 7.161178 5.102015 -0.901836 -92.579742 4.188961 11.707206 10.333095 -11.680178 -1.081198 -2.933952 -2.395849 15.500180 18.394281 8.011232 4.157800 -7.125000 0.000000 0.000000 -5.819100 41.791700 0.462300 -9.273236 -3.948969 0.210027 107.032153 5.200891 23.019360 -14.206982 20.174459 -3.804890 1.014521 2.100179 -17.790718 -16.071434 5.208639 -1.091900 7.125000 0.000000 0.000000 6.772000 -26.375000 3.078800 
-1.781407 17.458362 5.146530 -173.440525 81.504695 -178.370813 5.646219 -0.340455 -0.148249 -27.766525 -13.539771 -10.597043 -0.379853 11.189283 28.128283 -3.091764 13.553618 -7.431544 0.119000 2.223800 6.124400 -8.106997 -0.209496 -2.770138 30.811763 -6.452749 6.927643 -6.460148 -15.444332 49.027945 -0.266405 -2.277389 11.244099 -3.857200 11.968000 -35.618700 -0.789874 3.438863 8.153928 1.557671 4.967203 2.489380 -7.474125 2.643360 3.901450 10.336365 4.161133 -3.577262 3.873608 5.149512 17.044262 -4.805000 4.184500 6.901700 7.217930 5.039456 -0.951225 -92.606905 3.841781 14.323450 10.736303 -12.406308 -1.308723 -2.850814 -2.579927 12.740392 18.610272 7.839871 4.168900 -7.125000 0.000000 0.000000 -5.584600 41.694600 0.456900 -9.262296 -3.943184 0.263140 106.684422 4.626168 23.098506 -13.818734 19.667731 -3.619583 0.957134 2.099820 -17.134075 -15.574595 4.572695 -0.851000 7.125000 0.000000 0.000000 7.240700 -27.070400 3.175900 
-1.467570 17.488351 5.082055 -179.114435 81.355394 175.750284 5.630423 -0.136326 -0.080809 -29.056402 -12.325045 -8.852835 -0.531872 10.711258 27.176329 -2.889938 12.873389 -7.538188 0.090800 1.943800 5.350300 -8.182435 -0.159361 -2.747248 29.942503 -5.057361 3.945996 -8.076332 -16.759119 54.700975 -0.073005 -3.338466 10.896861 -4.132700 12.334900 -36.927300 -1.886589 3.198960 8.381637 1.440349 4.618655 2.492982 -7.249218 2.429329 3.797630 10.222233 4.434992 -3.413090 3.983694 5.493786 16.999196 -4.714600 4.352400 6.898600 7.292040 4.957166 -0.995052 -92.646832 3.408938 17.147630 11.187872 -13.211724 -1.580415 -2.758491 -2.775301 10.073541 18.818361 7.753698 4.214900 -7.125000 0.000000 0.000000 -5.378100 41.704700 0.438600 -9.281119 -3.929862 0.313012 106.296434 4.008002 23.259053 -13.525728 19.317312 -3.493434 0.894362 2.125327 -16.567609 -15.180454 3.856931 -0.597800 7.125000 0.000000 0.000000 7.642400 -27.867300 3.210200 
-1.156155 17.515686 5.017119 176.292878 81.001120 170.961388 5.639756 0.055958 -0.019979 -30.240124 -11.422271 -6.973018 -0.693462 10.208932 26.137213 -2.724002 12.323821 -7.771617 0.067500 1.675900 4.610800 -8.263293 -0.103932 -2.709663 29.319897 -3.521080 1.035577 -9.582559 -17.827643 59.673983 0.278405 -4.845932 9.437695 -4.216000 12.442400 -37.315400 -2.832380 2.923419 8.601100 1.353242 4.226902 2.501065 -6.996918 2.186882 3.736110 10.048430 4.662526 -3.255345 4.094016 5.780725 16.957382 -4.616300 4.488600 6.884300 7.377513 4.853748 -1.029017 -92.712884 2.842418 19.981679 11.668790 -14.043293 -1.881671 -2.660272 -2.982171 7.733184 18.990783 7.860207 4.333600 -7.125000 0.000000 0.000000 -5.250000 41.943300 0.397100 -9.318338 -3.912233 0.355831 105.864007 3.336023 23.467740 -13.304307 19.090139 -3.406067 0.850844 2.156991 -16.119390 -14.963694 3.264972 -0.399200 7.125000 0.000000 0.000000 7.889500 -28.530600 3.190900 
-0.846240 17.540368 4.950800 173.318448 80.524794 167.833581 5.658512 0.224593 0.027054 -31.228546 -10.848890 -5.026502 -0.850797 9.707288 25.089109 -2.599027 11.921014 -8.141702 0.053100 1.486800 4.089400 -8.360991 -0.047615 -2.645208 28.994951 -1.820577 -1.842411 -10.885842 -18.687544 63.800595 0.751430 -6.712799 7.296438 -4.041000 12.214700 -36.495800 -3.553916 2.625714 8.763902 1.303910 3.817347 2.508633 -6.740975 1.925604 3.722836 9.851508 4.825902 -3.116764 4.199355 5.985703 16.940414 -4.522300 4.586700 6.871500 7.469069 4.728747 -1.050247 -92.815267 2.103236 22.648166 12.160454 -14.855825 -2.201473 -2.565215 -3.152622 5.849184 19.122792 7.969392 4.438300 -7.125000 0.000000 0.000000 -5.163800 42.165700 0.362200 -9.360689 -3.891891 0.389485 105.397942 2.613681 23.657574 -13.123246 18.936417 -3.335502 0.840121 2.180118 -15.787581 -14.942988 2.913846 -0.285900 7.125000 0.000000 0.000000 7.945000 -28.925800 3.138500 
-0.536786 17.561360 4.883327 171.787829 80.011241 166.208567 5.677430 0.367851 0.057363 -32.005042 -10.520225 -3.099325 -0.990695 9.235144 24.115588 -2.510974 11.653779 -8.625802 0.044100 1.355700 3.728100 -8.478139 0.013828 -2.548116 28.933846 0.070516 -4.683326 -11.913226 -19.379974 66.980438 1.287227 -8.730669 4.763587 -3.752700 11.823800 -35.111400 -4.054803 2.325064 8.849007 1.288746 3.417762 2.513640 -6.497066 1.659609 3.744333 9.687635 4.923295 -2.973369 4.288696 6.105560 16.950444 -4.452600 4.649700 6.858800 7.568545 4.587482 -1.058587 -92.955662 1.200564 25.054805 12.655226 -15.634642 -2.534364 -2.477933 -3.260665 4.408844 19.204078 7.931001 4.458300 -7.125000 0.000000 0.000000 -5.099700 42.182300 0.355500 -9.398752 -3.873292 0.415183 104.930815 1.835470 23.736307 -12.958928 18.815083 -3.266480 0.864067 2.189813 -15.530256 -15.100495 2.817059 -0.257300 7.125000 0.000000 0.000000 7.817300 -29.037100 3.066300 
